<svg id="Capa_1" enable-background="new 0 0 512 512" height="512" viewBox="0 0 512 512" width="512" xmlns="http://www.w3.org/2000/svg"><g><path d="m286 136h-15v30h15c8.276 0 15-6.724 15-15s-6.724-15-15-15z"/><path d="m138.897 196h24.206l-12.103-32.285z"/><path d="m450.399 126.099c-4.799-53.399-49.799-96.099-104.399-96.099-17.999 0-35.4 4.799-51.301 13.5-25.499-27.901-60.598-43.5-98.699-43.5-71.1 0-129.6 56.199-134.399 126.099-36.001 12.274-61.601 46.385-61.601 84.901 0 48.986 40.463 90 91 90h330c49.969 0 91-40.834 91-90 0-39.6-26.201-72.9-61.601-84.901zm-249.126 128.949c-7.866 2.908-16.443-1.095-19.321-8.774l-7.601-20.274h-46.703l-7.601 20.273c-2.915 7.764-11.602 11.616-19.321 8.774-7.749-2.915-11.675-11.558-8.774-19.321l45-120c4.395-11.689 23.701-11.689 28.096 0l45 120c2.9 7.764-1.026 16.407-8.775 19.322zm84.727-59.048h-15v45c0 8.291-6.709 15-15 15s-15-6.709-15-15v-120c0-8.291 6.709-15 15-15h30c24.814 0 45 20.186 45 45s-20.186 45-45 45zm105 45c0 8.291-6.709 15-15 15s-15-6.709-15-15v-120c0-8.291 6.709-15 15-15s15 6.709 15 15z"/><path d="m79.625 400.509 15 25.981c4.142 7.174 13.315 9.633 20.49 5.491l15.467-8.93c24.084 28.187 57.458 48.109 95.418 55.093v18.856c0 8.284 6.716 15 15 15h30c8.284 0 15-6.716 15-15v-18.856c37.96-6.984 71.334-26.906 95.418-55.093l15.467 8.93c7.174 4.142 16.348 1.683 20.49-5.491l15-25.981c4.142-7.174 1.685-16.348-5.49-20.49l-15.502-8.95c4.495-12.678 6.967-26.204 8.286-40.069h-60.181c-7.335 50.821-50.636 90-103.488 90s-96.152-39.179-103.488-90h-60.179c1.318 13.865 3.788 27.391 8.284 40.069l-15.502 8.95c-7.174 4.142-9.631 13.316-5.49 20.49z"/></g></svg>