<svg id="Capa_1" enable-background="new 0 0 512.001 512.001" height="512" viewBox="0 0 512.001 512.001" width="512" xmlns="http://www.w3.org/2000/svg"><g><path d="m255.7 240.001h124.801c3.6-9.901 6.299-19.799 7.799-30h-118.799c-2.401 11.1-7.2 21.301-13.801 30z"/><path d="m196.001 150.001c-24.9 0-45 20.099-45 45s20.1 45 45 45 45-20.099 45-45-20.1-45-45-45zm15 60h-30v-30h30z"/><path d="m121.001 195.001c0-41.4 33.6-75 75-75h184.501c-24.3-69.6-90.601-119.7-169.501-120-90.3-.3-160.8 64.799-176.4 143.101-5.7 28.499-4.799 56.699 2.701 83.699l-37.301 62.4 61 43.5v87.299h60v92h210v-62.199c0-55.801 12.299-115.3 37.8-179.801h-172.8c-41.401.001-75-33.599-75-74.999z"/><path d="m269.501 180.001h121.5c0-10.201-.901-20.099-2.701-30h-132.6c6.601 8.699 11.4 18.9 13.801 30z"/><path d="m446.671 115.631c5.86 2.799 12.414 4.37 19.329 4.37 24.814 0 46-20.186 46-45s-21.186-45-46-45-45 20.186-45 45c0 6.916 1.571 13.47 4.37 19.329l-25.67 25.671h-19.198c3.6 9.6 6.299 19.501 7.799 30h24.001z"/><path d="m423.58 210.001c6.192 17.459 22.864 30 42.42 30 24.814 0 46-20.186 46-45s-21.186-45-46-45c-19.556 0-36.229 12.541-42.42 30h-32.58c0 10.201-.901 20.099-2.701 30z"/><path d="m368.801 270.001h30.899l25.671 25.671c-2.799 5.86-4.37 12.414-4.37 19.329 0 24.814 20.186 45 45 45s46-20.186 46-45-21.186-45-46-45c-6.916 0-13.469 1.571-19.329 4.37l-34.37-34.37h-31.8c-2.215 8.109-5.632 13.315-11.701 30z"/></g></svg>