<svg id="Layer_1" enable-background="new 0 0 512 512" height="512" viewBox="0 0 512 512" width="512" xmlns="http://www.w3.org/2000/svg"><g><path d="m223.87 241.019c-6.457 0-12.188 4.131-14.23 10.256-3.368 10.104-32.903 99.679-32.903 133.277 0 25.989 21.144 47.133 47.133 47.133s47.133-21.144 47.133-47.133c0-33.598-29.535-123.173-32.903-133.277-2.042-6.125-7.774-10.256-14.23-10.256z"/><path d="m208.867 84.705c-32.619 6.1-63.894 18.591-91.812 36.658l55.455 96.016c11.557-4.994 23.813-8.277 36.357-9.738z"/><path d="m238.867 80.901v126.74c12.542 1.461 24.8 4.744 36.364 9.738l69.873-121.063c-24.29-9.018-61.106-18.471-106.237-15.415z"/><path d="m372.718 108.483-71.522 123.92c10.107 7.536 19.078 16.506 26.611 26.609l132.692-76.628c-23.38-31.032-53.327-56.231-87.781-73.901z"/><path d="m33.77 209.285 73.164 42.223 13 7.502c7.532-10.101 16.503-19.072 26.61-26.606l-53.805-93.159c-23.63 19.612-43.706 43.453-58.969 70.04z"/><path d="m0 336.352c0 8.284 6.716 15 15 15h64.271c8.284 0 15-6.716 15-15 0-17.744 3.657-35.248 10.632-51.379l-84.536-48.785c-13.517 31.65-20.367 65.277-20.367 100.164z"/><path d="m477.156 207.407-134.319 77.568c6.974 16.131 10.633 33.637 10.633 51.377 0 8.284 6.716 15 15 15h128.53c8.284 0 15-6.716 15-15 0-45.64-12.008-89.891-34.844-128.945z"/></g></svg>